HIERARCHY
ROOT root
{
	OFFSET	0.00	0.00	0.00
	CHANNELS 6 Xposition Yposition Zposition Zrotation Xrotation Yrotation
	JOINT back
	{
		OFFSET	 0.494684	-0.003138	-0.003217
		CHANNELS 3 Zrotation Xrotation Yrotation
		JOINT chest
		{
			OFFSET	 0.264817	 0.004177	 0.000000
			CHANNELS 3 Zrotation Xrotation Yrotation
			JOINT l_clavicle
			{
				OFFSET	 0.114550	 0.000716	-0.065320
				CHANNELS 3 Zrotation Xrotation Yrotation
				JOINT l_end_clavicle
				{
					OFFSET	 0.162817	-0.003802	 0.000069
					CHANNELS 3 Zrotation Xrotation Yrotation
					JOINT l_shoulder
					{
						OFFSET	 0.005329	-0.036468	 0.055870
						CHANNELS 3 Zrotation Xrotation Yrotation
						JOINT l_forearm
						{
							OFFSET	 0.293748	 0.004777	-0.037788
							CHANNELS 3 Zrotation Xrotation Yrotation
							JOINT l_end_wrist
							{
								OFFSET	 0.317021	-0.006522	 0.006333
								CHANNELS 3 Zrotation Xrotation Yrotation
								JOINT l_index1
								{
									OFFSET	 0.152748	-0.021000	-0.014320
									CHANNELS 3 Zrotation Xrotation Yrotation
									JOINT l_index2
									{
										OFFSET	 0.039283	 0.000000	 0.000000
										CHANNELS 3 Zrotation Xrotation Yrotation
										JOINT l_index3
										{
											OFFSET	 0.038151	 0.000000	 0.000000
											CHANNELS 3 Zrotation Xrotation Yrotation
											End Site
											{
												OFFSET	 0.038151	 0.000000	 0.000000
											}
										}
									}
								}
								JOINT l_middle1
								{
									OFFSET	 0.151723	 0.016194	-0.014667
									CHANNELS 3 Zrotation Xrotation Yrotation
									JOINT l_middle_2
									{
										OFFSET	 0.038269	 0.000000	 0.000000
										CHANNELS 3 Zrotation Xrotation Yrotation
										JOINT l_middle_3
										{
											OFFSET	 0.039743	 0.000000	 0.000000
											CHANNELS 3 Zrotation Xrotation Yrotation
											End Site
											{
												OFFSET	 0.039743	 0.000000	 0.000000
											}
										}
									}
								}
								JOINT l_pinky1
								{
									OFFSET	 0.117088	 0.077397	-0.013819
									CHANNELS 3 Zrotation Xrotation Yrotation
									JOINT l_pinky2
									{
										OFFSET	 0.028938	 0.000000	 0.000000
										CHANNELS 3 Zrotation Xrotation Yrotation
										JOINT l_pinky3
										{
											OFFSET	 0.027080	 0.000000	 0.000000
											CHANNELS 3 Zrotation Xrotation Yrotation
											End Site
											{
												OFFSET	 0.027080	 0.000000	 0.000000
											}
										}
									}
								}
								JOINT l_ring1
								{
									OFFSET	 0.137788	 0.047650	-0.014135
									CHANNELS 3 Zrotation Xrotation Yrotation
									JOINT l_ring2
									{
										OFFSET	 0.030749	 0.000000	 0.000000
										CHANNELS 3 Zrotation Xrotation Yrotation
										JOINT l_ring3
										{
											OFFSET	 0.032711	 0.000000	 0.000000
											CHANNELS 3 Zrotation Xrotation Yrotation
											End Site
											{
												OFFSET	 0.032711	 0.000000	 0.000000
											}
										}
									}
								}
								JOINT l_thumb1
								{
									OFFSET	 0.054053	-0.036728	-0.011261
									CHANNELS 3 Zrotation Xrotation Yrotation
									JOINT l_thumb_2
									{
										OFFSET	 0.051141	-0.005593	-0.001180
										CHANNELS 3 Zrotation Xrotation Yrotation
										JOINT l_thumb_3
										{
											OFFSET	 0.046422	-0.001905	 0.000191
											CHANNELS 3 Zrotation Xrotation Yrotation
											End Site
											{
												OFFSET	 0.046422	-0.001905	 0.000191
											}
										}
									}
								}
							}
						}
					}
				}
			}
			JOINT neck
			{
				OFFSET	 0.143918	 0.000470	 0.000000
				CHANNELS 3 Zrotation Xrotation Yrotation
				JOINT head
				{
					OFFSET	-0.005038	-0.004312	 0.061068
					CHANNELS 3 Zrotation Xrotation Yrotation
					End Site
					{
						OFFSET	-0.005038	-0.004312	 0.061068
					}
				}
			}
			JOINT r_clavicle
			{
				OFFSET	 0.114552	 0.000716	 0.065320
				CHANNELS 3 Zrotation Xrotation Yrotation
				JOINT r_end_clavicle
				{
					OFFSET	-0.162817	 0.003801	-0.000067
					CHANNELS 3 Zrotation Xrotation Yrotation
					JOINT r_shoulder
					{
						OFFSET	 0.002145	 0.026426	-0.022629
						CHANNELS 3 Zrotation Xrotation Yrotation
						JOINT r_forearm
						{
							OFFSET	-0.279895	-0.026969	 0.065371
							CHANNELS 3 Zrotation Xrotation Yrotation
							JOINT r_end_wrist
							{
								OFFSET	-0.317022	 0.006522	-0.006331
								CHANNELS 3 Zrotation Xrotation Yrotation
								JOINT r_index1
								{
									OFFSET	-0.152748	 0.021000	 0.014322
									CHANNELS 3 Zrotation Xrotation Yrotation
									JOINT r_index2
									{
										OFFSET	-0.039280	 0.000000	-0.000001
										CHANNELS 3 Zrotation Xrotation Yrotation
										JOINT r_index3
										{
											OFFSET	-0.038152	 0.000000	-0.000001
											CHANNELS 3 Zrotation Xrotation Yrotation
											End Site
											{
												OFFSET	-0.038152	 0.000000	-0.000001
											}
										}
									}
								}
								JOINT r_middle1
								{
									OFFSET	-0.151722	-0.016194	 0.014664
									CHANNELS 3 Zrotation Xrotation Yrotation
									JOINT r_middle_2
									{
										OFFSET	-0.038270	 0.000000	 0.000003
										CHANNELS 3 Zrotation Xrotation Yrotation
										JOINT r_middle_3
										{
											OFFSET	-0.039744	 0.000000	 0.000000
											CHANNELS 3 Zrotation Xrotation Yrotation
											End Site
											{
												OFFSET	-0.039744	 0.000000	 0.000000
											}
										}
									}
								}
								JOINT r_pinky1
								{
									OFFSET	-0.117090	-0.077397	 0.013818
									CHANNELS 3 Zrotation Xrotation Yrotation
									JOINT r_pinky2
									{
										OFFSET	-0.028938	 0.000000	 0.000000
										CHANNELS 3 Zrotation Xrotation Yrotation
										JOINT r_pinky3
										{
											OFFSET	-0.027078	-0.000001	 0.000000
											CHANNELS 3 Zrotation Xrotation Yrotation
											End Site
											{
												OFFSET	-0.027078	-0.000001	 0.000000
											}
										}
									}
								}
								JOINT r_ring1
								{
									OFFSET	-0.137790	-0.047650	 0.014136
									CHANNELS 3 Zrotation Xrotation Yrotation
									JOINT r_ring2
									{
										OFFSET	-0.030748	 0.000000	-0.000001
										CHANNELS 3 Zrotation Xrotation Yrotation
										JOINT r_ring3
										{
											OFFSET	-0.032707	-0.000001	 0.000003
											CHANNELS 3 Zrotation Xrotation Yrotation
											End Site
											{
												OFFSET	-0.032707	-0.000001	 0.000003
											}
										}
									}
								}
								JOINT r_thumb1
								{
									OFFSET	-0.054054	 0.036728	 0.011262
									CHANNELS 3 Zrotation Xrotation Yrotation
									JOINT r_thumb_2
									{
										OFFSET	-0.051140	 0.005594	 0.001177
										CHANNELS 3 Zrotation Xrotation Yrotation
										JOINT r_thumb_3
										{
											OFFSET	-0.046419	 0.001906	-0.000190
											CHANNELS 3 Zrotation Xrotation Yrotation
											End Site
											{
												OFFSET	-0.046419	 0.001906	-0.000190
											}
										}
									}
								}
							}
						}
					}
				}
			}
		}
	}
	JOINT Pelvis
	{
		OFFSET	 0.153809	-0.002935	-0.002619
		CHANNELS 3 Zrotation Xrotation Yrotation
		JOINT l_thigh
		{
			OFFSET	 0.145222	-0.127336	 0.003596
			CHANNELS 3 Zrotation Xrotation Yrotation
			End Site
			{
				OFFSET	 0.145222	-0.127336	 0.003596
			}
		}
		JOINT r_thigh
		{
			OFFSET	 0.143036	 0.137870	 0.004463
			CHANNELS 3 Zrotation Xrotation Yrotation
			End Site
			{
				OFFSET	 0.143036	 0.137870	 0.004463
			}
		}
	}
}
MOTION
Frames:    4
Frame Time: 0.01666667
-0.050321	-0.073737	-0.018257	-174.715400	 1.182175	-90.845650	-4.810729	-1.580831	-7.021998	-4.244925	-5.538145	-6.781085	 1.346133	-5.476472	 110.555600	-0.813313	 0.122417	-8.559153	-55.033290	-21.815560	 18.150940	-1.913450	 25.269250	 0.963125	-19.840210	 19.111830	-54.271390	-11.582920	-4.601621	 9.666660	 2.503291	-1.126934	 4.548135	 3.270450	-0.643668	-80.071260	 3.980588	 3.180290	 11.898810	-0.275389	 3.148105	 9.181604	 2.909515	 4.319557	-70.585350	 37.418720	 19.803050	 14.817520	-6.821038	 19.211720	 10.901230	-5.647434	 19.246380	-70.646290	 18.556380	 10.444660	 21.103000	-3.898340	 9.395206	 9.518596	-0.473063	 9.966733	-72.614270	-51.617550	-12.041010	-7.588076	 16.022730	-0.540169	 0.139211	 14.789960	-0.368235	 3.437935	 0.416762	-0.043689	 90.230490	-91.921460	 9.057026	-83.111200	-178.169400	-10.879790	 99.382510	-0.813313	 0.122417	-8.559153	-87.314560	-24.915250	-25.688540	-2.038918	-11.863160	 1.497449	 13.666470	-20.969530	-11.379810	-4.838396	-1.878719	 8.061455	 2.511096	-1.127184	-4.101723	 3.299098	-1.129061	-89.457720	-12.393890	-14.223350	 68.728740	-0.135477	 3.282953	 78.725360	 0.190651	 7.210328	-12.085250	 29.678670	 12.055910	 58.451820	-7.105659	 21.231220	-175.540600	-4.716947	 19.573770	-20.543480	 18.790850	 9.013478	 171.918400	-3.484335	 9.763515	 74.825490	-5.207090	 8.652322	 133.572100	-33.376230	-15.658180	-23.736470	-35.789730	-0.276039	-0.209199	 35.370370	-0.405495	 3.620178	 0.000000	 90.000000	 0.000000	 174.983400	 8.671609	 173.040300	-173.470500	-15.091170	-32.864400
-0.050389	-0.073713	-0.018267	-174.702800	 1.176025	-90.852630	-4.811583	-1.582834	-7.024050	-4.260765	-5.563203	-6.791677	 1.345723	-5.474902	 110.555600	-0.813313	 0.122417	-8.559153	-55.050700	-21.836440	 18.145730	-1.844673	 25.266840	 0.943231	-19.870850	 19.125600	-54.254550	-11.582920	-4.601621	 9.666660	 2.503291	-1.126934	 4.548135	 3.270450	-0.643668	-80.071260	 3.979240	 3.179701	 11.898890	-0.275389	 3.148105	 9.181604	 2.909519	 4.319540	-70.585620	 37.420140	 19.803570	 14.817040	-6.821038	 19.211720	 10.901230	-5.647413	 19.246380	-70.645300	 18.554650	 10.443770	 21.103340	-3.898340	 9.395206	 9.518596	-0.473063	 9.966733	-72.614270	-51.617550	-12.041010	-7.588076	 16.022730	-0.540169	 0.139211	 14.789960	-0.368235	 3.437935	 0.418402	-0.066921	 90.230640	-91.951980	 9.056008	-83.071660	-178.171600	-10.875340	 99.363950	-0.813313	 0.122417	-8.559153	-87.329850	-24.900380	-25.747300	-2.037690	-11.847460	 1.495747	 13.650760	-20.928650	-11.323230	-4.855387	-1.882854	 8.101252	 2.511049	-1.127181	-4.049138	 3.299146	-1.126903	-89.416090	-12.274690	-14.077960	 68.757150	-0.135477	 3.282953	 78.725140	 0.190664	 7.210322	-12.085440	 29.678700	 12.055950	 58.451700	-7.092479	 21.232080	-176.237300	-4.716949	 19.573770	-20.543680	 18.791930	 8.973710	 171.301500	-3.484336	 9.763514	 74.825270	-5.224736	 8.684606	 132.729900	-33.341000	-15.579440	-23.424560	-39.706340	-0.245034	-0.223628	 35.370370	-0.405495	 3.620178	 0.000000	 90.000000	 0.000000	 174.979300	 8.676609	 173.047600	-173.458100	-15.095740	-32.858720
-0.050446	-0.073695	-0.018274	-174.691700	 1.171163	-90.859050	-4.812225	-1.584778	-7.026356	-4.275957	-5.585404	-6.802091	 1.345484	-5.473971	 110.555600	-0.813313	 0.122417	-8.559153	-55.057010	-21.866180	 18.144120	-1.786852	 25.263600	 0.926153	-19.900050	 19.149240	-54.229950	-11.582920	-4.601621	 9.666660	 2.503291	-1.126934	 4.548135	 3.270450	-0.643668	-80.071260	 3.977889	 3.179111	 11.898970	-0.275389	 3.148105	 9.181604	 2.909523	 4.319521	-70.585880	 37.421510	 19.804070	 14.816570	-6.821038	 19.211720	 10.901230	-5.647398	 19.246370	-70.644430	 18.552880	 10.442860	 21.103690	-3.898340	 9.395206	 9.518596	-0.473063	 9.966733	-72.614270	-51.617550	-12.041010	-7.588076	 16.022730	-0.540169	 0.139211	 14.789960	-0.368235	 3.437935	 0.420001	-0.089691	 90.230800	-91.981360	 9.053660	-83.034160	-178.173900	-10.870320	 99.344970	-0.813313	 0.122417	-8.559153	-87.344860	-24.888560	-25.801830	-2.036327	-11.832550	 1.494009	 13.634720	-20.888850	-11.273030	-4.872782	-1.887086	 8.142189	 2.511001	-1.127177	-3.995041	 3.299196	-1.124684	-89.373260	-12.159040	-13.936680	 68.784410	-0.135478	 3.282952	 78.724940	 0.190679	 7.210319	-12.085670	 29.678700	 12.055970	 58.451570	-7.079563	 21.232770	-176.919500	-4.716952	 19.573770	-20.543850	 18.792550	 8.934763	 170.697400	-3.484337	 9.763513	 74.825040	-5.241549	 8.716460	 131.905200	-33.306950	-15.502180	-23.119380	-43.540730	-0.213787	-0.235671	 35.370370	-0.405495	 3.620178	 0.000000	 90.000000	 0.000000	 174.975900	 8.681528	 173.052100	-173.449200	-15.098130	-32.853200
-0.050500	-0.073683	-0.018279	-174.680500	 1.166909	-90.866340	-4.812715	-1.587159	-7.029545	-4.293943	-5.608239	-6.814788	 1.345382	-5.473555	 110.555800	-0.813313	 0.122417	-8.559153	-55.051930	-21.912880	 18.146230	-1.728688	 25.258840	 0.908515	-19.934420	 19.189800	-54.190410	-11.582920	-4.601621	 9.666660	 2.503291	-1.126934	 4.548135	 3.270450	-0.643668	-80.071260	 3.976173	 3.178360	 11.899070	-0.275389	 3.148105	 9.181604	 2.909529	 4.319498	-70.586200	 37.423130	 19.804660	 14.816020	-6.821038	 19.211720	 10.901230	-5.647377	 19.246370	-70.643440	 18.550670	 10.441730	 21.104110	-3.898340	 9.395206	 9.518596	-0.473063	 9.966733	-72.614270	-51.617550	-12.041010	-7.588076	 16.022730	-0.540169	 0.139211	 14.789960	-0.368235	 3.437935	 0.421960	-0.117477	 90.230980	-92.016370	 9.049010	-82.991190	-178.177000	-10.863470	 99.320950	-0.813313	 0.122417	-8.559153	-87.363040	-24.877730	-25.864100	-2.034493	-11.815570	 1.491852	 13.614560	-20.841590	-11.221450	-4.894833	-1.892443	 8.194489	 2.510939	-1.127172	-3.925917	 3.299255	-1.121847	-89.318530	-12.019440	-13.765850	 68.816980	-0.135478	 3.282951	 78.724670	 0.190695	 7.210314	-12.085900	 29.678720	 12.056010	 58.451420	-7.063805	 21.233410	-177.751200	-4.716957	 19.573760	-20.544080	 18.792760	 8.887272	 169.961200	-3.484337	 9.763509	 74.824780	-5.261418	 8.755619	 130.899600	-33.266070	-15.407780	-22.747580	-48.214790	-0.174724	-0.247492	 35.370370	-0.405495	 3.620178	 0.000000	 90.000000	 0.000000	 174.972700	 8.687581	 173.053700	-173.443600	-15.098110	-32.846790
